<?xml version="1.0" encoding="UTF-8"?>
<svg width="10px" height="10px" viewBox="0 0 10 10" version="1.1" xmlns="http://www.w3.org/2000/svg" xmlns:xlink="http://www.w3.org/1999/xlink">
    <title>Outline Logo</title>
    <g id="Design-Alt-#2" stroke="none" stroke-width="1" fill="none" fill-rule="evenodd">
        <g id="Desktop" transform="translate(-128.000000, -720.000000)" stroke="#C9CED1" stroke-width="0.8">
            <g id="Outline-Logo" transform="translate(128.000000, 720.000000)">
                <path d="M3.5827074,3.58758287 C4.24088442,3.59298277 4.83623691,3.86194669 5.26839511,4.29410489 C5.70497174,4.73068152 5.975,5.33380652 5.975,6 L5.975,6 L5.975,6.75 C5.975,7.41619348 5.70497174,8.01931848 5.26839511,8.45589511 C4.83181848,8.89247174 4.22869348,9.1625 3.5625,9.1625 L3.5625,9.1625 L2.8125,9.1625 C2.14630652,9.1625 1.54318152,8.89247174 1.10660489,8.45589511 C0.67002826,8.01931848 0.4,7.41619348 0.4,6.75 L0.4,6.75 L0.4,3.9226047 Z" id="Bottom-Left"></path>
                <path d="M6.75,0.4 C7.41619348,0.4 8.01931848,0.67002826 8.45589511,1.10660489 C8.89247174,1.54318152 9.1625,2.14630652 9.1625,2.8125 L9.1625,2.8125 L9.1625,3.5625 C9.1625,4.22869348 8.89247174,4.83181848 8.45589511,5.26839511 C8.01931848,5.70497174 7.41619348,5.975 6.75,5.975 L6.75,5.975 L3.9226047,5.975 L3.58758287,2.7922926 C3.59298277,2.13411558 3.86194669,1.53876309 4.29410489,1.10660489 C4.73068152,0.67002826 5.33380652,0.4 6,0.4 L6,0.4 L6.75,0.4 Z" id="Top-Right" transform="translate(6.375000, 3.187500) scale(-1, 1) translate(-6.375000, -3.187500) "></path>
            </g>
        </g>
    </g>
</svg>