<?xml version="1.0" encoding="UTF-8"?>
<svg width="51px" height="51px" viewBox="0 0 51 51" version="1.1" xmlns="http://www.w3.org/2000/svg" xmlns:xlink="http://www.w3.org/1999/xlink">
    <title>Logo</title>
    <g id="Design-Alt-#2" stroke="none" stroke-width="1" fill="none" fill-rule="evenodd">
        <g id="Desktop" transform="translate(-128.000000, -128.000000)">
            <g id="Logo" transform="translate(128.000000, 128.000000)">
                <path d="M2,17 L19,17 C27.2842712,17 34,23.7157288 34,32 L34,36 C34,44.2842712 27.2842712,51 19,51 L15,51 C6.71572875,51 1.01453063e-15,44.2842712 0,36 L0,19 C-1.3527075e-16,17.8954305 0.8954305,17 2,17 Z" id="Bottom-Left" fill="#F4546C"></path>
                <path d="M32,0 L36,0 C44.2842712,-1.52179594e-15 51,6.71572875 51,15 L51,19 C51,27.2842712 44.2842712,34 36,34 L19,34 C17.8954305,34 17,33.1045695 17,32 L17,15 C17,6.71572875 23.7157288,1.52179594e-15 32,0 Z" id="Top-Right" fill="#56BEAD" transform="translate(34.000000, 17.000000) scale(-1, 1) translate(-34.000000, -17.000000) "></path>
                <path d="M19,17 C27.2842712,17 34,23.7157288 34,32 L34,34 L32,34 C23.8205929,34 17.1702698,27.4532136 17.0032178,19.3138282 L17,19 L17,17 L19,17 Z" id="Intersection" fill="#3B8F81"></path>
            </g>
        </g>
    </g>
</svg>